<?xml version="1.0" encoding="UTF-8"?>
<!DOCTYPE svg PUBLIC "-//W3C//DTD SVG 1.1//EN" "http://www.w3.org/Graphics/SVG/1.1/DTD/svg11.dtd">
<!-- Creator: CorelDRAW -->
<svg xmlns="http://www.w3.org/2000/svg" xml:space="preserve" width="110.542mm" height="33.5195mm" version="1.1" style="shape-rendering:geometricPrecision; text-rendering:geometricPrecision; image-rendering:optimizeQuality; fill-rule:evenodd; clip-rule:evenodd"
viewBox="0 0 11039.94 3347.63"
 xmlns:xlink="http://www.w3.org/1999/xlink"
 xmlns:xodm="http://www.corel.com/coreldraw/odm/2003">
 <defs>
  <style type="text/css">
   <![CDATA[
    .fil0 {fill:white}
    .fil1 {fill:white;fill-rule:nonzero}
   ]]>
  </style>
 </defs>
 <g id="Layer_x0020_1">
  <metadata id="CorelCorpID_0Corel-Layer"/>
  <g id="_36727820384">
   <g>
    <path class="fil0" d="M1886.68 1570.75l2.67 -1161.53c10.58,-81.63 25.47,-147.08 75.8,-216.54 32.69,-45.11 62.88,-78.09 108.93,-109.58 146.48,-100.26 275.93,-81.75 448.98,-81.75 161.35,0 290.56,53.26 383.97,177.96 26.88,35.87 43.86,68.23 59.96,110.31 6.19,16.17 9.07,25.26 13.55,43.2 7.21,28.75 13.62,62.91 13.62,99.92l0.01 1138.01 -1107.5 0z"/>
    <path class="fil0" d="M0.01 2581.14l0 -272.44c-0.01,-119.87 61.38,-221.06 136.92,-297.31 80.77,-81.48 193.56,-119.9 320.01,-119.89l175.21 0c798.71,0 1558.37,0 2362.01,0l0 675.45c0,90.42 -32.67,177.86 -79.48,244.06 -80.95,114.51 -213.54,187.33 -354.74,187.32l-1915.03 0 -207.85 0.01c-138.42,0 -272.08,-68.91 -352.37,-178.36 -47.73,-65.05 -84.69,-155.68 -84.69,-238.84z"/>
    <path class="fil0" d="M640.13 942l0 330.64c-0.02,164.18 135.52,275.35 298.1,298.11l384.44 53.79c162.58,22.75 320.87,-135.51 298.1,-298.11l-53.79 -384.43c-22.74,-162.6 -133.92,-298.11 -298.1,-298.11l-330.65 0c-164.18,0 -298.1,133.92 -298.1,298.11z"/>
   </g>
   <path class="fil1" d="M3967.75 1285.7c-27.68,0 -46.72,-5.19 -57.11,-15.57 -10.38,-10.39 -15.57,-28.84 -15.57,-55.38l0 -1086.7c0,-26.53 5.19,-44.98 15.57,-55.37 10.39,-10.39 29.42,-15.57 57.11,-15.57l162.66 0c29.99,0 51.91,3.46 65.76,10.38 13.84,6.92 25.96,21.34 36.33,43.26l285.52 558.92 285.52 -557.19c11.54,-24.23 23.36,-39.51 35.47,-45.85 12.1,-6.35 32.59,-9.52 61.42,-9.52l173.05 0c27.68,0 47.01,5.18 57.97,15.57 10.96,10.39 16.44,28.84 16.44,55.37l0 1086.7c0,26.54 -5.48,44.99 -16.44,55.38 -10.96,10.38 -30.28,15.57 -57.97,15.57l-188.62 0c-26.54,0 -45.28,-5.19 -56.24,-15.57 -10.96,-10.39 -16.44,-28.84 -16.44,-55.38l0 -249.18c0,-64.6 5.19,-129.49 15.57,-194.67 10.39,-65.18 30.57,-151.41 60.57,-258.7l-17.31 0c-11.54,33.46 -29.99,81.61 -55.38,144.49 -25.38,62.87 -46.14,110.46 -62.29,142.76l-98.63 195.54c-9.23,18.46 -19.33,31.14 -30.28,38.06 -10.97,6.93 -27.97,10.39 -51.05,10.39l-115.93 0c-23.07,0 -40.38,-3.18 -51.91,-9.52 -11.54,-6.34 -21.92,-19.33 -31.15,-38.93l-102.09 -195.54c-16.16,-31.15 -35.47,-77.29 -57.98,-138.43 -22.49,-61.14 -38.93,-110.75 -49.32,-148.82l-17.3 0c29.99,117.67 49.32,206.78 57.97,267.35 8.65,60.57 12.97,123.15 12.97,187.75l0 247.45c0,26.54 -5.47,44.99 -16.44,55.38 -10.96,10.38 -30.28,15.57 -57.97,15.57l-176.5 0zm1228.6 398c-25.39,0 -42.97,-4.9 -52.78,-14.71 -9.81,-9.81 -14.71,-27.39 -14.71,-52.78l0 -147.08c0,-25.38 4.61,-42.97 13.84,-52.78 9.24,-9.8 27.12,-14.7 53.65,-14.7 79.6,0 119.4,-39.8 119.4,-119.41l0 -830.59c0,-24.23 4.9,-41.25 14.71,-51.05 9.8,-9.8 27.39,-14.7 52.77,-14.7l185.15 0c25.39,0 43.26,4.9 53.65,14.7 10.38,9.81 15.57,26.83 15.57,51.05l0 851.36c0,130.35 -36.62,226.39 -109.88,288.11 -73.26,61.72 -183.71,92.58 -331.37,92.58zm109.01 -1552.18c0,-48.45 8.94,-81.61 26.83,-99.5 17.88,-17.88 51.62,-26.82 101.23,-26.82l84.79 0c49.61,0 83.34,8.94 101.23,26.82 17.88,17.89 26.82,51.05 26.82,99.5l0 19.04c0,48.45 -8.94,81.33 -26.82,98.63 -17.89,17.31 -51.62,25.96 -101.23,25.96l-84.79 0c-49.61,0 -83.35,-8.65 -101.23,-25.96 -17.89,-17.31 -26.83,-50.19 -26.83,-98.63l0 -19.04zm545.08 1154.18c-24.23,0 -41.24,-4.9 -51.04,-14.71 -9.81,-9.81 -14.71,-26.82 -14.71,-51.04l0 -692.17c0,-28.83 4.9,-50.46 14.71,-64.89 9.81,-14.42 28.55,-27.39 56.24,-38.93 110.75,-42.68 233.61,-64.03 368.57,-64.03 130.36,0 227.84,32.01 292.44,96.04 64.6,64.03 96.9,156.03 96.9,276l0 487.97c0,24.23 -4.61,41.24 -13.85,51.04 -9.23,9.81 -26.53,14.71 -51.9,14.71l-188.62 0c-25.38,0 -42.97,-4.9 -52.78,-14.71 -9.81,-9.81 -14.71,-26.82 -14.71,-51.04l0 -474.13c0,-34.62 -8.36,-59.41 -25.09,-74.41 -16.73,-14.99 -42.97,-22.49 -78.73,-22.49 -25.39,0 -50.76,2.89 -76.14,8.65 -3.47,1.16 -5.19,3.47 -5.19,6.92l0 555.46c0,24.23 -4.9,41.24 -14.71,51.04 -9.8,9.81 -26.82,14.71 -51.04,14.71l-190.34 0zm-1988.24 1663.93c-35.76,0 -53.64,-12.11 -53.64,-36.34 0,-10.38 2.31,-21.91 6.92,-34.61l398 -1097.07c8.07,-24.23 18.75,-40.38 32.01,-48.46 13.26,-8.07 32.59,-12.1 57.97,-12.1l197.27 0c25.39,0 44.7,4.03 57.98,12.1 13.26,8.08 23.94,23.08 32.01,44.99l399.72 1100.54c4.61,10.39 6.92,20.76 6.92,31.15 0,26.54 -19.04,39.8 -57.11,39.8l-186.88 0c-43.83,0 -74.69,-5.19 -92.58,-15.57 -17.88,-10.39 -30.28,-29.42 -37.2,-57.11l-38.07 -124.59 -377.22 0 -39.8 124.59c-8.08,27.68 -20.48,46.72 -37.2,57.11 -16.73,10.38 -45.86,15.57 -87.39,15.57l-181.7 0zm643.71 -468.95l-64.03 -202.45c-21.91,-74.99 -34.61,-156.32 -38.06,-244l-17.31 0c0,86.53 -10.96,167.27 -32.88,242.26l-64.03 204.19 216.3 0zm939.61 494.9c-138.43,0 -241.39,-33.17 -308.87,-99.5 -67.48,-66.33 -101.23,-160.63 -101.23,-282.92l0 -188.62c0,-119.98 35.47,-213.41 106.42,-280.33 70.94,-66.9 178.52,-100.36 322.71,-100.36 102.68,0 186.6,21.91 251.78,65.76 65.19,43.83 110.46,102.09 135.84,174.76 5.76,17.31 8.65,30 8.65,38.07 0,13.84 -4.32,25.1 -12.98,33.75 -8.65,8.65 -22.2,15.86 -40.66,21.63l-160.93 51.91c-13.84,4.61 -27.11,6.92 -39.8,6.92 -12.69,0 -23.07,-4.04 -31.15,-12.11 -8.07,-8.08 -16.15,-21.34 -24.22,-39.8 -10.39,-25.38 -23.36,-43.84 -38.94,-55.38 -15.57,-11.54 -36.62,-17.3 -63.16,-17.3 -29.99,0 -53.06,8.36 -69.22,25.09 -16.15,16.73 -24.22,40.09 -24.22,70.08l0 224.96c0,29.99 8.07,53.06 24.22,69.21 16.16,16.15 39.23,24.23 69.22,24.23 26.54,0 47.59,-5.48 63.16,-16.44 15.58,-10.97 28.55,-29.13 38.94,-54.51 8.07,-18.46 16.15,-31.44 24.22,-38.93 8.08,-7.5 18.46,-11.26 31.15,-11.26 12.69,0 25.96,2.31 39.8,6.92l166.12 50.19c36.92,10.39 55.38,28.84 55.38,55.37 0,10.39 -3.47,23.65 -10.39,39.81 -65.76,159.19 -203.03,238.79 -411.84,238.79zm899.82 0c-107.28,0 -190.63,-10.39 -250.05,-31.15 -59.4,-20.76 -101.23,-51.62 -125.45,-92.57 -24.23,-40.96 -36.34,-95.47 -36.34,-163.53 0,-74.98 14.42,-133.24 43.26,-174.77 28.83,-41.53 73.26,-70.65 133.24,-87.38 59.98,-16.73 141.32,-25.1 243.99,-25.1l77.87 1.74 0 -44.99c0,-30 -7.5,-52.49 -22.49,-67.49 -15,-14.99 -39.8,-22.49 -74.41,-22.49 -26.53,0 -48.45,5.19 -65.76,15.57 -17.3,10.39 -32.88,25.39 -46.72,44.99 -9.23,11.54 -17.3,19.9 -24.23,25.1 -6.92,5.18 -15.57,7.78 -25.95,7.78 -13.85,0 -29.42,-4.03 -46.73,-12.11l-122.85 -50.18c-32.31,-13.84 -48.46,-31.73 -48.46,-53.64 0,-12.69 4.04,-26.54 12.11,-41.54 62.3,-119.98 190.34,-179.96 384.15,-179.96 145.35,0 248.6,32.59 309.74,97.76 61.14,65.18 91.71,157.18 91.71,276l0 425.68c0,31.14 -4.32,53.64 -12.98,67.48 -8.65,13.84 -25.67,25.96 -51.04,36.34 -76.13,32.3 -190.34,48.45 -342.62,48.45zm-96.9 -288.98c0,21.92 6.34,38.93 19.04,51.04 12.69,12.11 35.76,18.17 69.22,18.17 40.37,0 69.21,-1.73 86.52,-5.18 5.76,0 8.65,-2.89 8.65,-8.66l0 -124.59 -91.71 -1.73c-61.14,0 -91.71,23.65 -91.71,70.95zm1020.94 288.98c-134.97,0 -235.63,-32.3 -301.95,-96.9 -66.33,-64.6 -99.5,-156.89 -99.5,-276.86l0 -188.62c0,-126.9 33.17,-223.51 99.5,-289.85 66.32,-66.32 163.52,-99.49 291.57,-99.49 9.23,0 48.45,1.73 117.67,5.19l0 -294.17c0,-24.23 4.61,-41.25 13.84,-51.05 9.23,-9.8 26.53,-14.7 51.91,-14.7l188.61 0c25.39,0 42.97,4.9 52.78,14.7 9.81,9.81 14.71,26.83 14.71,51.05l0 1081.5c0,28.83 -4.61,49.32 -13.84,61.43 -9.24,12.1 -28.84,24.51 -58.83,37.2 -102.68,40.38 -221.49,60.56 -356.47,60.56zm-79.6 -365.12c0,27.68 8.65,48.75 25.96,63.16 17.31,14.42 42.11,21.63 74.4,21.63 31.15,0 58.26,-2.31 81.34,-6.92 3.46,-1.15 5.19,-4.03 5.19,-8.65l0 -368.57c-28.84,-5.77 -54.8,-8.66 -77.87,-8.66 -72.68,0 -109.02,31.73 -109.02,95.18l0 212.84zm1062.47 365.12c-147.66,0 -256.39,-36.34 -326.18,-109.02 -69.79,-72.68 -104.68,-169.58 -104.68,-290.7l0 -154.01c0,-129.2 37.2,-227.84 111.61,-295.9 74.41,-68.06 181.41,-102.09 321,-102.09 95.75,0 176.21,16.73 241.39,50.18 65.18,33.46 113.34,78.74 144.49,135.84 31.14,57.1 46.72,121.41 46.72,192.94l0 95.17c0,29.99 -7.21,52.49 -21.63,67.48 -14.42,15 -38.36,22.5 -71.82,22.5l-449.9 0 0 32.88c0,74.98 37.49,112.47 112.47,112.47 59.98,0 106.13,-20.76 138.43,-62.3 9.23,-11.54 17.31,-19.89 24.23,-25.09 6.92,-5.19 14.99,-7.79 24.22,-7.79 13.85,0 30,4.62 48.46,13.85l119.4 51.91c31.15,13.84 46.72,32.88 46.72,57.1 0,10.39 -4.61,24.81 -13.84,43.26 -65.76,114.2 -196.12,171.31 -391.08,171.31zm112.48 -596.99l0 -22.5c0,-34.61 -8.95,-60.56 -26.83,-77.86 -17.88,-17.31 -45.86,-25.96 -83.92,-25.96 -73.83,0 -110.75,34.61 -110.75,103.82l0 22.5 221.49 0zm501.81 571.03c-24.23,0 -41.24,-4.9 -51.04,-14.71 -9.81,-9.81 -14.71,-26.82 -14.71,-51.04l0 -692.17c0,-28.83 4.9,-50.46 14.71,-64.89 9.81,-14.42 28.55,-27.39 56.24,-38.93 49.61,-19.61 101.81,-35.19 156.6,-46.73 54.8,-11.54 120.26,-17.3 196.41,-17.3 85.36,0 156.31,14.99 212.84,44.99 81.9,-30 170.16,-44.99 264.76,-44.99 126.9,0 220.92,32.01 282.06,96.04 61.14,64.03 91.71,156.03 91.71,276l0 487.97c0,24.23 -4.61,41.24 -13.84,51.04 -9.24,9.81 -26.54,14.71 -51.91,14.71l-188.62 0c-25.38,0 -42.97,-4.9 -52.78,-14.71 -9.81,-9.81 -14.7,-26.82 -14.7,-51.04l0 -477.59c0,-31.15 -6.93,-54.51 -20.77,-70.08 -13.84,-15.57 -36.33,-23.36 -67.48,-23.36 -24.23,0 -48.45,3.46 -72.68,10.38 4.61,21.92 6.92,47.88 6.92,77.87l0 482.79c0,24.23 -4.9,41.24 -14.71,51.04 -9.81,9.81 -27.39,14.71 -52.77,14.71l-188.62 0c-25.38,0 -42.68,-4.9 -51.91,-14.71 -9.23,-9.81 -13.84,-26.82 -13.84,-51.04l0 -477.59c0,-62.29 -29.99,-93.44 -89.98,-93.44 -13.84,0 -33.46,2.31 -58.83,6.92 -4.61,0 -6.92,3.46 -6.92,10.38l0 553.74c0,24.23 -4.9,41.24 -14.71,51.04 -9.8,9.81 -26.82,14.71 -51.04,14.71l-190.34 0zm1758.09 398c-96.9,0 -176.21,-14.13 -237.92,-42.4 -61.72,-28.26 -111.04,-71.24 -147.95,-128.91 -10.39,-17.31 -15.58,-31.73 -15.58,-43.26 0,-21.92 16.15,-40.96 48.46,-57.11l145.35 -70.95c18.46,-9.23 32.88,-13.84 43.25,-13.84 10.39,0 19.33,2.89 26.83,8.66 7.5,5.76 15.86,14.99 25.09,27.68 13.84,18.46 29.13,32.88 45.86,43.25 16.73,10.39 37.78,15.58 63.16,15.58 64.6,0 96.9,-34.04 96.9,-102.1l0 -67.48c-31.15,4.61 -70.37,6.92 -117.67,6.92 -130.36,0 -227.84,-32.3 -292.44,-96.9 -64.6,-64.6 -96.9,-156.89 -96.9,-276.86l0 -434.33c0,-24.23 4.9,-41.25 14.71,-51.05 9.81,-9.8 26.83,-14.7 51.04,-14.7l190.34 0c24.23,0 41.25,4.9 51.05,14.7 9.8,9.81 14.7,26.83 14.7,51.05l0 422.22c0,34.61 8.37,59.41 25.1,74.41 16.73,14.99 42.96,22.49 78.73,22.49 21.92,0 49.03,-2.31 81.34,-6.92l0 -512.2c0,-24.23 4.9,-41.25 14.7,-51.05 9.81,-9.8 27.4,-14.7 52.78,-14.7l188.62 0c25.38,0 42.68,4.9 51.91,14.7 9.23,9.81 13.84,26.83 13.84,51.05l0 832.33c0,122.28 -33.46,219.47 -100.37,291.57 -66.9,72.1 -171.88,108.15 -314.93,108.15z"/>
  </g>
 </g>
</svg>
