<?xml version="1.0" encoding="UTF-8"?>
<!DOCTYPE svg PUBLIC "-//W3C//DTD SVG 1.1//EN" "http://www.w3.org/Graphics/SVG/1.1/DTD/svg11.dtd">
<!-- Creator: CorelDRAW -->
<svg xmlns="http://www.w3.org/2000/svg" xml:space="preserve" width="48.8738mm" height="48.942mm" version="1.1" style="shape-rendering:geometricPrecision; text-rendering:geometricPrecision; image-rendering:optimizeQuality; fill-rule:evenodd; clip-rule:evenodd"
viewBox="0 0 929.02 930.32"
 xmlns:xlink="http://www.w3.org/1999/xlink"
 xmlns:xodm="http://www.corel.com/coreldraw/odm/2003">
 <defs>
  <style type="text/css">
   <![CDATA[
    .fil0 {fill:white}
   ]]>
  </style>
 </defs>
 <g id="Layer_x0020_1">
  <metadata id="CorelCorpID_0Corel-Layer"/>
  <g id="_36724024528">
   <path class="fil0" d="M585.39 487.37l0.83 -360.4c3.28,-25.33 7.9,-45.63 23.52,-67.19 10.14,-14 19.51,-24.23 33.8,-34 45.45,-31.11 85.62,-25.37 139.31,-25.37 50.07,0 90.15,16.53 119.14,55.22 8.34,11.13 13.61,21.17 18.61,34.23 1.92,5.01 2.81,7.84 4.21,13.4 2.24,8.92 4.23,19.52 4.23,31l0 353.1 -343.63 0z"/>
   <path class="fil0" d="M0 800.87l0 -84.53c-0,-37.19 19.04,-68.59 42.48,-92.25 25.06,-25.28 60.06,-37.2 99.29,-37.2l54.36 0c247.82,0 483.53,0 732.88,0l0 209.58c0,28.06 -10.14,55.19 -24.66,75.72 -25.12,35.53 -66.26,58.12 -110.07,58.12l-594.19 0 -64.49 0c-42.95,0 -84.42,-21.38 -109.33,-55.34 -14.81,-20.18 -26.28,-48.3 -26.28,-74.11z"/>
   <path class="fil0" d="M198.62 292.28l0 102.59c-0.01,50.94 42.05,85.44 92.49,92.49l119.28 16.69c50.45,7.06 99.56,-42.05 92.49,-92.49l-16.69 -119.28c-7.06,-50.45 -41.55,-92.49 -92.49,-92.49l-102.59 0c-50.94,0 -92.49,41.55 -92.49,92.49z"/>
  </g>
 </g>
</svg>
